<svg width="28" height="28" viewBox="0 0 28 28" fill="none" xmlns="http://www.w3.org/2000/svg">
	<circle cx="14" cy="14" r="14" fill="#525C69" fill-opacity="0.3"/>
	<path fill-rule="evenodd" clip-rule="evenodd" d="M8.52719 11.7714C8.52904 11.7708 8.53092 11.7704 8.53282 11.77L19.8665 9.37336C20.1929 9.30433 20.5001 9.55334 20.5001 9.887V18.1024C20.5001 18.4469 20.1739 18.698 19.8409 18.61L15.4933 17.4608V18.8523C15.4933 19.3355 15.1015 19.7273 14.6183 19.7273H10.5285C10.0452 19.7273 9.65347 19.3355 9.65347 18.8523V15.9172L8.52856 15.6198L8.52384 15.6184C8.49999 15.6362 8.47285 15.6501 8.4432 15.659L6.8669 16.1364C6.69834 16.1874 6.52832 16.0613 6.52832 15.8852V11.5021C6.52832 11.326 6.69834 11.1998 6.8669 11.2509L8.4432 11.7282C8.47425 11.7376 8.50255 11.7524 8.52719 11.7714ZM14.3427 17.1566L10.8041 16.2213V18.4367C10.8041 18.5816 10.9216 18.6992 11.0666 18.6992H14.0802C14.2252 18.6992 14.3427 18.5816 14.3427 18.4367V17.1566Z" fill="#F8FAFB"/>
</svg>
